<?xml version="1.0" standalone="no"?>
<!DOCTYPE svg PUBLIC "-//W3C//DTD SVG 20010904//EN"
 "http://www.w3.org/TR/2001/REC-SVG-20010904/DTD/svg10.dtd">
<svg version="1.0" xmlns="http://www.w3.org/2000/svg"
 width="670.000000pt" height="216.000000pt" viewBox="0 0 670.000000 216.000000"
 preserveAspectRatio="xMidYMid meet">

<g transform="translate(0.000000,216.000000) scale(0.100000,-0.100000)"
fill="#000000" stroke="none">
<path d="M0 1080 l0 -1080 3350 0 3350 0 0 1080 0 1080 -3350 0 -3350 0 0
-1080z m1565 698 c-9 -58 -73 -316 -75 -303 -5 25 40 251 65 333 10 28 16 9
10 -30z m-391 -102 c96 -165 118 -206 109 -206 -8 0 -70 96 -84 130 -4 8 -30
52 -58 98 -28 46 -51 86 -51 89 0 18 38 -32 84 -111z m1300 33 c-9 -10 -23
-19 -31 -19 -9 0 -4 11 14 29 30 31 46 22 17 -10z m1281 9 c-16 -57 -17 -57 5
-51 11 3 20 0 20 -6 0 -6 -9 -11 -20 -11 -13 0 -22 -9 -26 -27 -12 -58 -26
-93 -35 -93 -6 0 -7 9 -4 21 7 20 6 20 -24 5 -38 -20 -58 -20 -69 0 -8 14 -10
14 -21 0 -15 -18 -47 -21 -56 -5 -9 13 23 99 36 99 12 0 12 -1 -6 -43 -18 -45
-18 -47 -1 -47 8 0 24 16 36 35 28 46 43 45 34 -2 -6 -33 -5 -36 12 -29 10 4
31 10 47 13 15 3 27 11 27 18 0 8 3 21 7 31 5 13 3 16 -10 11 -23 -9 -22 5 2
20 10 6 22 28 25 47 4 20 12 36 17 36 6 0 8 -10 4 -22z m-449 -46 c-15 -28
-14 -29 8 -25 50 10 37 -66 -15 -87 -34 -15 -69 -5 -69 20 0 10 11 32 25 48
14 17 33 47 42 69 11 26 18 33 20 21 2 -9 -3 -30 -11 -46z m-726 38 c0 -5 -4
-10 -10 -10 -5 0 -10 5 -10 10 0 6 5 10 10 10 6 0 10 -4 10 -10z m-200 -20 c0
-5 -9 -10 -20 -10 -20 0 -23 -6 -35 -85 -4 -22 -11 -46 -17 -52 -12 -15 -58
-17 -58 -3 0 6 9 10 20 10 24 0 36 22 42 83 5 46 5 47 -23 47 -16 0 -29 5 -29
10 0 6 27 10 60 10 33 0 60 -4 60 -10z m-1818 -35 c11 14 23 24 25 21 3 -3 -5
-18 -17 -33 l-22 -28 46 -19 c25 -11 46 -23 46 -27 0 -5 -21 1 -46 11 l-46 20
7 -31 c5 -22 4 -29 -4 -25 -6 4 -11 19 -11 34 l0 27 -25 -30 c-29 -36 -34 -24
-5 12 l20 26 -30 18 c-39 24 -39 34 0 14 l30 -16 2 33 1 33 4 -33 4 -33 21 26z
m1933 9 c17 -18 14 -56 -7 -81 -13 -16 -68 -32 -85 -25 -28 9 -6 88 31 114 18
13 44 9 61 -8z m1015 6 c0 -5 -2 -10 -4 -10 -3 0 -8 5 -11 10 -3 6 -1 10 4 10
6 0 11 -4 11 -10z m-440 -14 c0 -18 -19 -33 -52 -41 -25 -6 -45 -32 -33 -43 6
-7 72 -4 96 3 11 4 19 2 19 -4 0 -14 -39 -23 -86 -19 -33 3 -39 7 -41 28 -3
28 10 47 47 73 30 21 50 22 50 3z m828 -3 c-2 -10 -20 -26 -41 -36 -63 -29
-43 -63 29 -47 21 5 42 6 47 3 6 -4 8 12 5 41 -4 32 -2 46 6 43 6 -2 11 -20
11 -40 0 -31 2 -34 15 -22 23 19 100 57 100 48 0 -5 4 -1 10 7 17 27 22 2 9
-54 -7 -31 -16 -56 -22 -56 -8 0 -5 23 9 73 3 9 2 17 -3 17 -22 -1 -90 -49
-108 -77 -22 -36 -35 -42 -35 -15 0 15 -9 17 -62 17 -58 0 -63 2 -66 23 -2 15
8 34 31 57 38 38 71 47 65 18z m-1332 -9 c-3 -9 -9 -33 -12 -55 -7 -40 -24
-64 -24 -34 0 32 23 105 32 105 6 0 7 -7 4 -16z m125 6 c5 0 6 -18 3 -42 l-7
-41 31 6 c19 4 32 2 34 -5 3 -7 12 -9 23 -4 17 6 15 9 -14 27 -26 16 -30 23
-21 33 15 19 61 29 73 17 8 -8 5 -11 -8 -11 -11 0 -27 -4 -34 -9 -12 -8 -10
-12 12 -22 50 -23 22 -59 -45 -59 -39 1 -68 20 -68 45 0 17 -2 16 -23 -3 -27
-26 -45 -28 -54 -6 -7 19 56 87 75 79 8 -3 18 -5 23 -5z m719 1 c0 -28 -25
-111 -33 -111 -5 0 -7 10 -3 23 3 12 9 39 12 60 4 20 10 37 15 37 5 0 9 -4 9
-9z m800 -2 c0 -5 5 -7 11 -4 6 5 9 -7 7 -32 -3 -35 -1 -38 24 -38 15 -1 30
-4 34 -8 10 -10 34 -9 34 1 0 5 -11 14 -25 20 -34 16 -31 38 6 51 39 13 49 14
49 2 0 -5 -15 -11 -32 -15 l-33 -6 33 -20 c37 -23 40 -35 13 -50 -51 -27 -138
2 -127 42 4 18 1 17 -24 -7 -17 -17 -35 -25 -44 -22 -24 9 -19 26 18 63 34 34
56 43 56 23z m-703 -12 c-2 -7 -10 -39 -17 -72 -6 -33 -18 -70 -26 -82 -17
-26 -55 -30 -74 -8 -17 21 -6 29 18 14 30 -19 49 2 62 69 16 80 20 92 32 92 5
0 8 -6 5 -13z m-2120 -85 c4 -36 2 -52 -6 -52 -6 0 -11 13 -11 29 0 16 -3 44
-6 62 -5 26 -4 31 5 23 6 -6 14 -34 18 -62z m296 44 c-15 -28 -124 -146 -134
-146 -6 0 20 36 58 80 61 72 97 103 76 66z m-559 -116 c52 -53 53 -69 1 -22
-41 36 -70 72 -59 72 5 0 31 -23 58 -50z m741 9 c-4 -5 -11 -9 -17 -9 -6 0
-58 -22 -115 -50 -105 -51 -123 -57 -123 -42 0 11 243 121 253 115 4 -2 5 -9
2 -14z m-930 -32 c90 -63 130 -95 124 -101 -3 -3 -28 12 -57 33 -28 22 -72 52
-96 68 -42 26 -57 43 -38 43 4 0 34 -19 67 -43z m554 -247 c58 -33 84 -83 84
-160 -1 -61 -20 -110 -53 -133 -19 -14 -19 -14 6 -38 37 -34 54 -79 54 -144 0
-72 -19 -115 -66 -151 -36 -28 -41 -29 -171 -32 l-133 -4 0 347 0 347 118 -4
c101 -3 123 -7 161 -28z m1828 3 c99 -51 122 -205 43 -284 l-27 -28 24 -23
c40 -38 56 -78 56 -143 0 -64 -16 -106 -55 -142 -38 -35 -73 -43 -199 -43
l-119 0 0 338 c0 186 3 342 8 346 4 5 57 6 119 3 85 -3 121 -9 150 -24z m311
-320 l2 -343 -55 0 -55 0 0 346 0 345 53 -3 52 -3 3 -342z m453 335 c2 -7 2
-142 -1 -300 -5 -269 -6 -288 -26 -315 -29 -40 -99 -73 -155 -73 -108 0 -179
77 -179 197 l0 63 54 0 54 0 4 -60 c5 -71 26 -100 74 -100 62 0 64 11 64 316
0 149 3 274 7 277 12 13 101 8 104 -5z m403 -11 c25 -14 48 -39 63 -66 22 -42
23 -54 23 -257 0 -126 -4 -224 -11 -241 -36 -96 -162 -141 -265 -94 -90 41
-108 106 -102 370 4 198 9 221 60 268 34 32 65 42 133 42 44 1 70 -5 99 -22z
m316 -265 c5 -266 6 -285 24 -298 28 -20 70 -17 92 7 17 19 19 44 24 298 l5
276 53 3 52 3 0 -281 c0 -305 -2 -322 -56 -372 -55 -51 -136 -63 -210 -29 -47
21 -77 59 -93 116 -12 44 -16 547 -4 559 4 4 30 6 58 4 l50 -3 5 -283z m501
188 c21 -52 40 -104 44 -115 4 -15 18 12 49 95 l43 115 54 0 c43 0 53 -3 51
-15 -2 -8 -33 -86 -68 -172 l-65 -157 62 -148 c33 -81 65 -158 70 -170 8 -22
7 -23 -49 -23 l-57 0 -40 110 c-21 61 -42 107 -46 103 -4 -5 -24 -54 -44 -110
l-38 -103 -59 0 -58 0 16 38 c8 20 40 97 70 171 l55 134 -69 168 c-38 93 -67
171 -64 174 4 3 29 5 56 3 l51 -3 36 -95z m1296 -245 c12 17 23 25 23 19 0 -6
-9 -23 -21 -38 l-21 -26 47 -21 c54 -24 56 -37 2 -14 -48 20 -48 19 -41 -11 5
-19 4 -25 -5 -20 -6 4 -11 17 -11 29 l-1 22 -18 -22 c-28 -33 -36 -28 -11 6
l20 30 -30 17 c-16 10 -30 22 -30 27 0 5 14 -1 30 -13 l30 -21 1 38 2 38 6
-35 6 -35 22 30z m-2404 -510 c55 -6 58 -8 84 -52 l27 -46 -90 -83 c-49 -46
-92 -83 -96 -84 -7 0 -68 126 -68 139 1 3 10 -10 21 -29 l20 -35 -5 30 c-2 17
-7 39 -10 50 -4 11 1 5 10 -14 8 -19 14 -46 11 -59 -2 -13 -1 -20 4 -15 4 4
10 33 12 63 l3 55 3 -60 3 -60 14 55 c13 52 13 53 10 12 -5 -50 0 -48 25 7
l17 39 -56 11 c-38 7 -58 8 -60 1 -2 -5 -10 -3 -19 6 -20 20 -28 11 -13 -16 6
-12 10 -24 7 -26 -2 -3 -10 9 -17 26 -12 28 -11 33 11 56 27 30 57 44 79 39 8
-2 41 -6 73 -10z m-223 -85 c-67 -21 -115 -35 -117 -33 -2 1 -51 -18 -110 -43
-60 -25 -112 -47 -118 -48 -5 -1 -25 -10 -44 -20 -18 -10 -42 -16 -52 -13 -11
3 -16 1 -13 -4 6 -10 -24 -25 -33 -15 -8 7 15 34 40 48 17 9 19 8 14 -6 -8
-21 -8 -21 65 13 95 43 244 100 302 116 56 15 110 20 66 5z m-182 -6 c-4 -3
-52 -27 -107 -54 -56 -26 -108 -53 -116 -60 -10 -9 -15 -9 -15 -1 0 6 30 26
68 45 37 19 62 35 56 36 -32 1 -225 -68 -349 -125 -27 -13 -54 -21 -58 -18 -8
5 153 78 188 87 6 1 19 7 30 12 18 9 63 23 220 68 52 15 92 20 83 10z m-188
-13 c0 -5 -15 -13 -32 -17 -45 -11 -29 -5 -138 -47 -55 -21 -200 -95 -200
-103 0 -2 7 -1 15 2 8 4 15 1 15 -5 0 -6 -7 -11 -15 -11 -9 0 -26 -7 -39 -16
-29 -18 -43 -3 -18 20 10 8 65 41 123 71 57 31 91 52 74 49 -47 -11 -177 -53
-213 -70 -18 -9 -49 -18 -69 -21 -58 -10 -32 14 71 64 50 25 82 42 71 38 -31
-10 -91 -19 -85 -12 6 6 187 57 203 57 4 0 7 -4 7 -9 0 -5 -36 -23 -80 -40
-106 -41 -150 -63 -150 -74 0 -6 5 -5 13 0 18 15 187 69 318 103 130 33 129
33 129 21z m-452 -66 c-3 -3 -43 -19 -89 -36 -46 -17 -79 -26 -74 -20 6 6 42
22 80 35 71 25 93 30 83 21z"/>
<path d="M3276 1609 c-14 -11 -26 -25 -26 -30 0 -16 40 -9 60 11 40 40 13 56
-34 19z"/>
<path d="M2442 1653 c-7 -3 -19 -17 -27 -33 -19 -37 -2 -55 34 -37 58 29 52
94 -7 70z"/>
<path d="M2625 1610 c-18 -20 -15 -38 4 -25 15 9 33 45 23 45 -5 0 -17 -9 -27
-20z"/>
<path d="M4160 1605 c-13 -14 -19 -25 -13 -25 5 0 20 11 33 25 13 14 19 25 13
25 -5 0 -20 -11 -33 -25z"/>
<path d="M1320 1047 c0 -108 7 -117 76 -98 47 13 63 36 64 92 0 66 -22 90 -88
97 l-52 5 0 -96z"/>
<path d="M1320 755 l0 -105 50 0 c76 0 110 45 97 127 -10 56 -41 83 -99 83
l-48 0 0 -105z"/>
<path d="M3157 1133 c-12 -11 -8 -181 4 -188 6 -4 30 -4 55 0 56 8 79 40 78
104 -1 57 -36 91 -93 91 -21 0 -41 -3 -44 -7z"/>
<path d="M3150 755 l0 -105 54 0 c47 0 57 4 75 26 37 47 21 160 -24 178 -9 3
-37 6 -61 6 l-44 0 0 -105z"/>
<path d="M4353 1140 c-39 -16 -43 -40 -43 -254 0 -193 1 -207 20 -226 27 -27
81 -26 106 1 17 19 19 41 22 216 3 211 -2 242 -44 262 -29 13 -31 13 -61 1z"/>
<path d="M4057 362 c-21 -23 -21 -32 -3 -32 8 0 17 10 19 23 l4 22 2 -22 c0
-13 6 -23 11 -23 11 0 13 11 4 34 -8 21 -17 20 -37 -2z"/>
<path d="M4100 376 c0 -3 4 -16 10 -30 10 -26 40 -36 40 -13 0 6 5 4 11 -5 16
-28 30 -21 18 8 -5 15 -7 29 -5 32 3 2 8 -7 12 -22 7 -31 15 -32 39 -6 22 24
20 27 -22 31 -23 3 -39 -3 -57 -20 -29 -27 -36 -18 -9 11 15 17 15 18 -10 18
-15 0 -27 -2 -27 -4z"/>
<path d="M4227 332 c-10 -10 -14 -22 -10 -25 11 -12 21 -8 26 11 4 16 5 16 6
0 0 -10 8 -18 16 -18 18 0 19 9 1 33 -16 21 -19 21 -39 -1z"/>
<path d="M4165 228 c-40 -80 -41 -98 -2 -38 15 22 32 37 40 34 7 -2 28 11 47
31 24 25 29 35 18 35 -9 0 -28 -15 -42 -32 -14 -18 -26 -29 -26 -24 0 6 9 20
21 32 l20 21 -21 6 c-17 4 -26 -6 -55 -65z"/>
</g>
</svg>
